HIERARCHY
ROOT Hips
{
	OFFSET -3.958830 18.904000 13.208200
	CHANNELS 6 Xposition Yposition Zposition Zrotation Yrotation Xrotation 
	JOINT LHipJoint
	{
		OFFSET 0.000000 0.000000 0.000000
		CHANNELS 3 Zrotation Yrotation Xrotation
		JOINT LeftUpLeg
		{
			OFFSET 1.800000 -1.400000 0.085000
			CHANNELS 3 Zrotation Yrotation Xrotation
			JOINT LeftLeg
			{
				OFFSET 2.215000 -6.000000 0.000000
				CHANNELS 3 Zrotation Yrotation Xrotation
				JOINT LeftFoot
				{
					OFFSET 2.500000 -6.900000 0.000000
					CHANNELS 3 Zrotation Yrotation Xrotation
					JOINT LeftToeBase
					{
						OFFSET 0.200000 -0.500000 1.950000
						CHANNELS 3 Zrotation Yrotation Xrotation
						End Site
						{
							OFFSET 0.000000 0.000000 0.000000
						}
					}
				}
			}
		}
	}
	JOINT RHipJoint
	{
		OFFSET 0.000000 0.000000 0.000000
		CHANNELS 3 Zrotation Yrotation Xrotation
		JOINT RightUpLeg
		{
			OFFSET -1.800000 -1.400000 0.085000
			CHANNELS 3 Zrotation Yrotation Xrotation
			JOINT RightLeg
			{
				OFFSET -2.215000 -6.000000 0.000000
				CHANNELS 3 Zrotation Yrotation Xrotation
				JOINT RightFoot
				{
					OFFSET -2.500000 -6.900000 0.000000
					CHANNELS 3 Zrotation Yrotation Xrotation
					JOINT RightToeBase
					{
						OFFSET -0.200000 -0.500000 1.950000
						CHANNELS 3 Zrotation Yrotation Xrotation
						End Site
						{
							OFFSET 0.000000 0.000000 0.000000
						}
					}
				}
			}
		}
	}
	JOINT LowerBack
	{
		OFFSET 0.000000 0.000000 0.000000
		CHANNELS 3 Zrotation Yrotation Xrotation
		JOINT Spine
		{
			OFFSET -0.087000 1.940000 -0.288900
			CHANNELS 3 Zrotation Yrotation Xrotation
			JOINT Spine1
			{
				OFFSET 0.000000 1.950000 0.060000
				CHANNELS 3 Zrotation Yrotation Xrotation
				JOINT Neck
				{
					OFFSET 0.000000 0.000000 0.000000
					CHANNELS 3 Zrotation Yrotation Xrotation
					JOINT Neck1
					{
						OFFSET 0.000000 1.600000 0.340000
						CHANNELS 3 Zrotation Yrotation Xrotation
						JOINT Head
						{
							OFFSET 0.000000 1.667000 -0.240000
							CHANNELS 3 Zrotation Yrotation Xrotation
							End Site
							{
								OFFSET 0.000000 0.000000 0.000000
							}
						}
					}
				}
				JOINT LeftShoulder
				{
					OFFSET 0.000000 0.000000 0.000000
					CHANNELS 3 Zrotation Yrotation Xrotation
					JOINT LeftArm
					{
						OFFSET 2.700000 1.550000 -0.730000
						CHANNELS 3 Zrotation Yrotation Xrotation
						JOINT LeftForeArm
						{
							OFFSET 5.450000 0.000000 0.000000
							CHANNELS 3 Zrotation Yrotation Xrotation
							JOINT LeftHand
							{
								OFFSET 3.450000 0.000000 0.000000
								CHANNELS 3 Zrotation Yrotation Xrotation
								JOINT LeftHandIndex1
								{
									OFFSET 0.750000 0.000000 0.000000
									CHANNELS 3 Zrotation Yrotation Xrotation
									End Site
									{
										OFFSET 0.000000 0.000000 0.000000
									}
								}
							}
						}
					}
				}
				JOINT RightShoulder
				{
					OFFSET 0.000000 0.000000 0.000000
					CHANNELS 3 Zrotation Yrotation Xrotation
					JOINT RightArm
					{
						OFFSET -2.700000 1.550000 -0.730000
						CHANNELS 3 Zrotation Yrotation Xrotation
						JOINT RightForeArm
						{
							OFFSET -5.450000 0.000000 0.000000
							CHANNELS 3 Zrotation Yrotation Xrotation
							JOINT RightHand
							{
								OFFSET -3.450000 0.000000 0.000000
								CHANNELS 3 Zrotation Yrotation Xrotation
								JOINT RightHandIndex1
								{
									OFFSET -0.750000 0.000000 0.000000
									CHANNELS 3 Zrotation Yrotation Xrotation
									End Site
									{
										OFFSET 0.000000 0.000000 0.000000
									}
								}
							}
						}
					}
				}
			}
		}
	}
}
MOTION
Frames: 6
Frame Time: 0.016667
-8.628390 16.837200 5.710950 -1.273774 -21.969130 5.820411 -15.743688 14.252337 4.330198 10.106981 -2.669701 -25.432368 -17.484502 6.982308 7.988410 0.075134 4.299194 2.899262 -0.071470 -0.297150 0.268450 17.471778 -9.014464 2.916717 -14.488162 1.850440 -9.717047 5.621595 -2.670730 -3.474263 -0.367407 -2.693103 3.339296 -0.426160 -0.035670 0.101840 -1.367318 -6.994943 -8.936971 6.244406 2.741332 29.110564 4.664628 9.619484 -26.046730 6.862718 -3.437974 -12.828423 -13.847639 22.562824 56.318131 -0.178350 23.904920 -0.944670 -5.186680 8.570532 2.657857 -24.195882 12.450307 -2.877787 7.004663 -1.490015 0.016683 -3.704325 2.656143 0.702590 -0.209450 0.286270 -0.114710 -2.472755 -1.588342 6.057042 46.138867 -7.959361 -8.812847 -16.037491 9.605968 0.309321 2.949190 -0.856738 -0.140150 -0.022320 0.074190 -0.187040 
-8.453600 16.870900 5.756200 -1.834018 -22.747960 6.379690 -15.766462 14.490615 4.265273 7.756891 -2.506803 -23.353362 -15.878518 5.881519 4.759491 -0.006019 3.930418 3.084252 -0.120940 -0.378900 0.251750 17.431638 -9.122243 2.821083 -13.133001 1.645715 -9.645223 6.148147 -2.979062 -1.370875 -0.312193 -2.609243 3.354808 -0.445500 0.019420 0.108450 -1.233221 -7.233688 -8.889275 6.861842 3.063987 28.232648 5.483279 10.686311 -26.112462 6.679425 -3.140301 -13.081494 -12.733325 22.260757 56.385764 1.031900 23.834850 0.809530 -3.318670 8.447856 2.828971 -18.686123 13.406290 -2.470225 3.745215 1.179820 -0.265491 -3.766501 2.629563 0.706240 -0.176040 0.244820 -0.132660 -3.802356 -1.442296 6.538358 41.559252 -8.880188 -8.276568 -15.192096 8.061564 0.607233 2.964723 -0.833678 -0.186510 -0.010680 0.118930 -0.202080 
-8.285150 16.917920 5.778510 -2.596482 -23.364070 5.787758 -15.828437 14.791454 4.232659 5.983995 -2.114160 -20.787202 -13.882441 4.960595 1.793828 -0.054218 3.675927 3.196307 -0.126950 -0.394070 0.253970 17.375526 -9.221662 2.620531 -11.081203 1.189339 -8.572311 6.538906 -3.556826 2.344538 -0.272854 -2.575127 3.361438 -0.438590 0.010480 0.107780 -1.019511 -7.650644 -8.821395 7.532702 3.513934 28.535292 6.657422 12.087050 -24.601114 6.565532 -3.052753 -13.573443 -12.625500 21.658008 56.588154 1.031620 23.183840 1.076220 -3.415124 6.958813 3.100548 -12.443912 14.853488 -1.987620 -1.248513 3.208574 -0.891622 -3.751313 2.654592 0.704100 -0.170970 0.228640 -0.154020 -3.377369 0.427325 7.684725 35.896203 -10.603366 -7.520721 -14.612090 5.613791 0.930282 2.988354 -0.831007 -0.195510 -0.023130 0.137710 -0.218670 
-8.124940 16.955370 5.801510 -3.783864 -22.945434 6.220886 -15.878603 14.963639 4.287611 5.191275 -1.945215 -20.078664 -12.454427 4.345889 -0.391309 -0.085276 3.553967 3.262234 -0.139110 -0.407340 0.217370 17.348219 -9.231663 2.504834 -7.963512 0.900149 -7.915477 6.846709 -4.079199 6.108233 -0.235955 -2.595933 3.364779 -0.429790 0.046090 0.119020 -0.910165 -8.003574 -8.815123 9.357614 3.561958 28.295684 7.172966 13.228345 -23.864632 6.433102 -3.205257 -13.507315 -13.035894 20.904131 55.178632 1.092950 21.874310 1.611960 -2.817179 6.971131 2.519057 -7.599807 13.015140 -1.224395 -4.063921 6.895756 -1.470084 -3.790814 2.650101 0.674610 -0.137980 0.191700 -0.148770 -3.564780 0.794656 8.487617 31.004169 -13.087305 -6.932599 -13.330816 5.082421 0.999661 2.974863 -0.832779 -0.200220 -0.025330 0.159580 -0.208270 
-7.966470 17.000370 5.808310 -4.667734 -22.788533 6.275656 -15.975195 15.131198 4.309196 4.721281 -1.720124 -19.477024 -11.438195 3.990849 -1.993295 -0.056034 3.504191 3.287632 -0.132940 -0.382790 0.209970 17.298353 -9.093414 2.450911 -4.708363 0.642681 -6.986300 6.701121 -4.427691 9.243243 -0.240912 -2.666299 3.331711 -0.418180 0.049820 0.138820 -0.718893 -8.555930 -8.833958 10.074418 3.625372 29.220145 8.176375 14.528771 -24.002605 6.317300 -3.493245 -13.019755 -13.482574 20.312457 53.592335 0.499830 21.120620 0.868000 -1.884023 7.976341 1.595934 -2.793074 11.684953 -0.605577 -8.601676 9.601737 -2.382631 -3.750584 2.686661 0.628100 -0.125100 0.188070 -0.149930 -3.984289 0.473748 8.912608 25.800467 -14.140098 -5.967094 -12.048893 4.240703 1.031925 3.004418 -0.826837 -0.169010 -0.039550 0.158890 -0.185230 
-7.812310 17.042800 5.812050 -4.807107 -22.262798 5.822835 -16.056752 15.201165 4.328013 3.941800 -1.541450 -18.498953 -11.102655 3.724607 -3.648375 -0.044245 3.529762 3.306534 -0.129370 -0.362130 0.201470 17.270267 -8.932921 2.453130 -1.983621 0.408128 -5.873812 6.501228 -4.735917 11.597605 -0.286393 -2.796268 3.312431 -0.410040 0.064880 0.146700 -0.592425 -8.954943 -8.878171 10.202601 3.491404 30.295774 8.419645 15.154444 -24.044285 6.333915 -3.227692 -12.759047 -12.683857 20.129580 53.523348 -0.341090 21.620330 -1.071790 -0.835814 8.515088 1.051880 1.142047 12.076316 -0.418936 -10.641055 7.598028 -2.551003 -3.671453 2.694426 0.642060 -0.110620 0.203750 -0.135460 -4.989327 0.010510 9.071753 23.215029 -14.210995 -5.563208 -10.920089 2.792295 1.073927 3.007356 -0.769510 -0.172650 -0.009060 0.157350 -0.181400 
